<svg viewBox="0 0 38 34" xmlns="http://www.w3.org/2000/svg"><path d="m3.758 7.5.002.005c.003.005.01.016.018.05-.007.035-.015.046-.018.051l-.002.005.005.004c.008.007.032.025.081.095.118.21.228.32.55.568.697.563 1.652 1.024 3.071 1.492 2.92.981 6.87 1.568 11.424 1.563 4.555.005 8.504-.582 11.424-1.563 1.419-.468 2.374-.93 3.07-1.492.323-.248.433-.358.55-.569.05-.069.073-.087.082-.094l.004-.004-.001-.005c-.004-.005-.011-.016-.018-.05.007-.035.014-.046.018-.051l.001-.004-.004-.005c-.009-.007-.032-.025-.081-.094-.118-.211-.228-.32-.55-.569-.697-.563-1.652-1.024-3.071-1.492-2.92-.98-6.87-1.568-11.424-1.563-4.555-.005-8.505.582-11.424 1.563-1.419.468-2.374.93-3.071 1.492-.322.248-.432.358-.55.569-.05.069-.073.087-.081.094l-.005.005zm2.513-5.743c3.234-1.07 7.784-1.752 12.618-1.757 4.834.005 9.384.686 12.618 1.757 1.657.557 3.192 1.316 4.215 2.11 1.076.847 2.056 2.079 2.056 3.689s-.98 2.841-2.056 3.689c-1.023.793-2.558 1.552-4.215 2.11-3.234 1.07-7.784 1.751-12.618 1.756-4.834-.005-9.384-.686-12.618-1.756-1.657-.558-3.192-1.317-4.215-2.11-1.076-.848-2.056-2.08-2.056-3.69 0-1.609.98-2.841 2.056-3.689 1.023-.793 2.558-1.552 4.215-2.11zm1.282 17.213c2.898 1.137 6.804 1.815 11.336 1.808 4.532.007 8.438-.67 11.336-1.808 1.41-.543 2.352-1.074 3.05-1.732.625-.575.725-.977.725-1.182h3.778c0 1.62-.852 2.957-1.947 3.963-1.023.925-2.57 1.818-4.237 2.472-3.254 1.255-7.848 2.058-12.705 2.065-4.857-.007-9.451-.81-12.705-2.065-1.668-.654-3.214-1.547-4.237-2.472-1.095-1.006-1.947-2.343-1.947-3.963h3.778c0 .205.1.607.725 1.182.697.658 1.64 1.19 3.05 1.732zm0 9.445c2.898 1.137 6.804 1.814 11.336 1.807 4.532.007 8.438-.67 11.336-1.807 1.41-.543 2.352-1.075 3.05-1.732.625-.576.725-.977.725-1.183h3.778c0 1.62-.852 2.957-1.947 3.964-1.023.925-2.57 1.817-4.237 2.471-3.254 1.256-7.848 2.058-12.704 2.065-4.857-.007-9.451-.81-12.705-2.065-1.668-.654-3.214-1.546-4.237-2.471-1.096-1.007-1.948-2.344-1.948-3.964h3.778c0 .206.1.607.725 1.183.697.657 1.64 1.189 3.05 1.732z" fill="#fff"/></svg>