<svg viewBox="0 0 52 51" xmlns="http://www.w3.org/2000/svg"><g fill="none" fill-rule="evenodd"><path d="m7.427 26.632c-2.2 0-3.96.547-3.96.547-.81 0-1.467 3.01-1.467 6.724s.657 6.724 1.467 6.724c0 0 1.466.746 4.059.746 2.592 0 4.06-.746 4.06-.746.81 0 1.466-3.01 1.466-6.724s-.656-6.724-1.467-6.724c0 0-1.958-.547-4.158-.547zm30.803 7.271c0 3.713.656 6.724 1.467 6.724 0 0 1.467.746 4.06.746 2.592 0 4.058-.746 4.058-.746.81 0 1.467-3.01 1.467-6.724s-.657-6.724-1.467-6.724c0 0-1.76-.548-3.96-.548s-4.158.548-4.158.548c-.81 0-1.467 3.01-1.467 6.724" stroke="#fff" stroke-width="4"/><path d="m9 42s1.371 5.571 15.025 5.571" stroke="#fff" stroke-linecap="round" stroke-linejoin="round" stroke-width="4"/><path d="m32.946 47.571c0 1.856-1.083 3.361-2.418 3.361h-7.657c-1.335 0-2.417-1.505-2.417-3.36 0-1.857 1.082-3.363 2.417-3.363h7.657c1.335 0 2.418 1.506 2.418 3.362" fill="#fff"/><path d="m42.9 26v-4.488c0-2.488 2.096-19.512-16.991-19.512-20.187 0-18.383 18-18.383 19.512v4.488" stroke="#fff" stroke-linecap="round" stroke-linejoin="round" stroke-width="4"/></g></svg>