<svg height="741" width="1909" xmlns="http://www.w3.org/2000/svg"><g fill="none" fill-rule="evenodd" stroke="#f1f2fa" stroke-width="2"><path d="m1252 972c0 164.028-132.971 297-297 297s-297-132.972-297-297 132.971-297 297-297 297 132.972 297 297z"/><path d="m1298 938.5c0 189.711-153.79 343.5-343.5 343.5s-343.5-153.789-343.5-343.5 153.79-343.5 343.5-343.5 343.5 153.789 343.5 343.5z"/><path d="m1344 906.5c0 215.667-174.833 390.5-390.5 390.5s-390.5-174.833-390.5-390.5 174.833-390.5 390.5-390.5 390.5 174.833 390.5 390.5z"/><path d="m1390 874c0 241.348-195.652 437-437 437s-437-195.652-437-437 195.652-437 437-437 437 195.652 437 437z"/><path d="m1438 842c0 267.304-216.694 484-484 484s-484-216.696-484-484 216.694-484 484-484 484 216.696 484 484z"/><path d="m1485 810c0 293.264-237.737 531-531 531s-531-237.736-531-531 237.737-531 531-531 531 237.736 531 531z"/><path d="m1531 777.5c0 318.945-258.555 577.5-577.5 577.5s-577.5-258.555-577.5-577.5 258.555-577.5 577.5-577.5 577.5 258.555 577.5 577.5z"/><path d="m1578 744.5c0 344.901-279.599 624.5-624.5 624.5s-624.5-279.599-624.5-624.5 279.599-624.5 624.5-624.5 624.5 279.599 624.5 624.5z"/><path d="m1624 713c0 370.583-300.416 671-671 671s-671-300.417-671-671 300.416-671 671-671 671 300.417 671 671z"/><path d="m1673 681.5c0 396.817-321.684 718.5-718.5 718.5s-718.5-321.683-718.5-718.5 321.684-718.5 718.5-718.5 718.5 321.683 718.5 718.5z"/><path d="m1720 649.5c0 422.774-342.725 765.5-765.5 765.5-422.773 0-765.5-342.726-765.5-765.5s342.727-765.5 765.5-765.5c422.775 0 765.5 342.726 765.5 765.5z"/><path d="m1766 617c0 448.456-363.544 812-812 812s-812-363.544-812-812 363.544-812 812-812 812 363.544 812 812z"/><path d="m1813 584c0 474.411-384.587 859-859 859-474.411 0-859-384.589-859-859s384.589-859 859-859c474.413 0 859 384.589 859 859z"/><path d="m1859 552.5c0 500.095-405.406 905.5-905.5 905.5s-905.5-405.405-905.5-905.5 405.406-905.5 905.5-905.5 905.5 405.405 905.5 905.5z"/><path d="m1907 519.5c0 526.05-426.449 952.5-952.5 952.5-526.05 0-952.5-426.45-952.5-952.5s426.45-952.5 952.5-952.5c526.052 0 952.5 426.45 952.5 952.5z"/><path d="m1954 488.5c0 552.008-447.492 999.5-999.5 999.5s-999.5-447.492-999.5-999.5 447.492-999.5 999.5-999.5 999.5 447.492 999.5 999.5z"/></g></svg>