<svg viewBox="0 0 1920 445" xmlns="http://www.w3.org/2000/svg" xmlns:xlink="http://www.w3.org/1999/xlink"><linearGradient id="a" x1="-20.61231%" y1="50%" y2="50%"><stop offset="0" stop-color="#f1f2fa" stop-opacity="0"/><stop offset="1" stop-color="#f1f2fa"/></linearGradient><mask id="b" fill="#fff"><path d="m0 0h1920v446h-1920z" fill="#fff" fill-rule="evenodd"/></mask><g fill="none" fill-rule="evenodd"><g mask="url(#b)" opacity=".08" stroke="#8388de" transform="translate(0 -1)"><path d="m867.279 81.796a2.672 2.672 0 0 0 -2.029-2.392l-164.62-40.33a2.75 2.75 0 0 0 -1.264 0l-164.626 40.33a2.687 2.687 0 0 0 -2.021 2.392c-.22 2.767-20.192 277.152 166.415 341.056a2.582 2.582 0 0 0 1.73 0c186.612-63.904 166.64-338.29 166.415-341.056" stroke-width="1.455"/><path d="m928.019 28.176a3.632 3.632 0 0 0 -2.76-3.25l-223.899-54.826a3.737 3.737 0 0 0 -1.72 0l-223.913 54.825a3.653 3.653 0 0 0 -2.75 3.25c-.3 3.761-27.464 376.754 226.344 463.624a3.55 3.55 0 0 0 2.352 0c253.817-86.87 226.653-459.863 226.347-463.623" stroke-width="1.449"/><path d="m987.759-25.445a4.593 4.593 0 0 0 -3.49-4.11l-283.183-69.317a4.72 4.72 0 0 0 -2.175 0l-283.197 69.318a4.617 4.617 0 0 0 -3.478 4.11c-.378 4.754-34.735 476.355 286.274 586.19a4.478 4.478 0 0 0 2.974 0c321.02-109.835 286.664-581.436 286.276-586.19" stroke-width="1.442"/><path d="m1048.497-78.954c-.178-2.404-1.896-4.4-4.226-4.975l-342.956-83.918a5.744 5.744 0 0 0 -2.635 0l-342.97 83.918a5.593 5.593 0 0 0 -4.213 4.975c-.458 5.756-42.066 576.679 346.699 709.648a5.455 5.455 0 0 0 3.602 0c388.778-132.97 347.17-703.892 346.7-709.648" stroke-width="1.436"/><path d="m1109.237-133.574c-.209-2.82-2.224-5.16-4.955-5.835l-402.24-98.411c-1-.24-2.075-.24-3.09 0l-402.255 98.41a6.558 6.558 0 0 0 -4.94 5.835c-.539 6.75-49.338 676.28 406.627 832.214a6.388 6.388 0 0 0 4.224 0c455.982-155.935 407.181-825.465 406.63-832.214" stroke-width="1.429"/><path d="m1168.977-187.083c-.24-3.238-2.552-5.926-5.686-6.7l-461.522-113.01a7.707 7.707 0 0 0 -3.546 0l-461.538 113.01a7.53 7.53 0 0 0 -5.67 6.7c-.616 7.751-56.61 776.603 466.557 955.67a7.315 7.315 0 0 0 4.847 0c523.185-179.067 467.192-947.919 466.558-955.67" stroke-width="1.423"/><path d="m1228.718-240.703c-.27-3.654-2.88-6.686-6.418-7.56l-520.804-127.503a8.717 8.717 0 0 0 -4 0l-520.824 127.504a8.493 8.493 0 0 0 -6.398 7.559c-.696 8.745-63.881 876.204 526.487 1078.236.889.311 1.836.467 2.763.467a8.25 8.25 0 0 0 2.706-.467c590.388-202.032 527.203-1069.49 526.488-1078.236" stroke-width="1.416"/><path d="m1290.456-294.211c-.301-4.073-3.21-7.451-7.153-8.425l-580.578-142.104a9.687 9.687 0 0 0 -4.46 0l-580.599 142.104c-3.92.996-6.808 4.352-7.131 8.425-.776 9.746-71.212 976.528 586.912 1201.692.99.346 2.046.519 3.081.519.99 0 2.025-.173 3.016-.52 658.146-225.162 587.709-1191.944 586.912-1201.69" stroke-width="1.41"/><path d="m1350.196-347.832c-.332-4.487-3.539-8.21-7.884-9.284l-639.86-156.597a10.674 10.674 0 0 0 -4.916 0l-639.882 156.597c-4.322 1.098-7.504 4.797-7.86 9.284-.855 10.74-78.483 1076.13 646.84 1324.26a10.36 10.36 0 0 0 3.397.572c1.092 0 2.231-.191 3.324-.573 725.348-248.13 647.72-1313.519 646.84-1324.259" stroke-width="1.403"/><path d="m1410.936-402.452c-.363-4.902-3.866-8.97-8.614-10.144l-699.142-171.091a11.684 11.684 0 0 0 -5.371 0l-699.169 171.09c-4.723 1.2-8.2 5.243-8.589 10.145-.934 11.734-85.755 1175.73 706.77 1446.826a11.32 11.32 0 0 0 3.711.626c1.193 0 2.439-.209 3.633-.626 792.551-271.096 707.73-1435.092 706.77-1446.826" stroke-width="1.396"/><path d="m1470.677-455.961c-.395-5.321-4.195-9.735-9.345-11.01l-758.425-185.689a12.664 12.664 0 0 0 -5.827 0l-758.452 185.69c-5.122 1.302-8.895 5.689-9.317 11.01-1.013 12.736-93.026 1276.054 766.7 1570.282 1.295.453 2.674.679 4.025.679 1.295 0 2.646-.226 3.94-.679 859.755-294.228 767.742-1557.546 766.7-1570.282" stroke-width="1.39"/><path d="m1531.414-509.581c-.425-5.736-4.524-10.497-10.081-11.87l-818.197-200.183a13.663 13.663 0 0 0 -6.286 0l-818.227 200.184c-5.526 1.404-9.596 6.134-10.05 11.87-1.094 13.73-100.359 1375.655 827.124 1692.849 1.396.488 2.884.732 4.342.732 1.396 0 2.854-.244 4.25-.732 927.514-317.194 828.25-1679.12 827.125-1692.85" stroke-width="1.383"/><path d="m1592.155-563.09c-.456-6.154-4.852-11.262-10.812-12.734l-877.48-214.784a14.67 14.67 0 0 0 -6.741 0l-877.511 214.784c-5.927 1.505-10.292 6.58-10.78 12.734-1.172 14.731-107.63 1475.979 887.054 1816.304 1.498.524 3.094.786 4.657.786 1.498 0 3.06-.262 4.56-.786 994.714-340.325 888.258-1801.573 887.052-1816.304" stroke-width="1.377"/><path d="m1651.895-617.71c-.487-6.57-5.18-12.022-11.542-13.594l-936.763-229.277a15.654 15.654 0 0 0 -7.197 0l-936.798 229.277c-6.326 1.607-10.985 7.023-11.506 13.593-1.252 15.725-114.901 1575.58 946.983 1938.872 1.6.559 3.303.839 4.971.839 1.6 0 3.268-.28 4.867-.84 1061.92-363.29 948.27-1923.146 946.984-1938.87" stroke-width="1.37"/><path d="m1712.635-671.331c-.517-6.985-5.509-12.78-12.273-14.453l-996.044-243.77a16.64 16.64 0 0 0 -7.653 0l-996.081 243.77c-6.727 1.709-11.68 7.468-12.236 14.453-1.33 16.719-122.171 1675.182 1006.913 2061.438 1.7.596 3.512.893 5.286.893 1.7 0 3.475-.297 5.176-.893 1129.121-386.256 1008.28-2044.72 1006.912-2061.438" stroke-width="1.364"/><path d="m1773.373-724.84c-.548-7.403-5.838-13.546-13.009-15.319l-1055.817-258.369a17.66 17.66 0 0 0 -8.111 0l-1055.857 258.37c-7.131 1.81-12.382 7.915-12.97 15.318-1.41 17.721-129.503 1775.505 1067.338 2184.895 1.802.63 3.722.945 5.603.945 1.802 0 3.684-.315 5.485-.945 1196.881-409.39 1068.788-2167.175 1067.338-2184.895" stroke-width="1.357"/><path d="m1833.114-778.46c-.58-7.818-6.166-14.306-13.74-16.178l-1115.1-272.863a18.62 18.62 0 0 0 -8.567 0l-1115.14 272.863c-7.532 1.913-13.078 8.36-13.699 16.178-1.49 18.715-136.775 1875.106 1127.267 2307.461a18.04 18.04 0 0 0 5.918.999c1.903 0 3.89-.333 5.794-.999 1264.082-432.355 1128.798-2288.746 1127.267-2307.46" stroke-width="1.351"/><path d="m1893.853-831.97c-.61-8.236-6.494-15.071-14.47-17.043l-1174.381-287.461c-2.92-.701-6.058-.701-9.022 0l-1174.427 287.461c-7.932 2.015-13.773 8.807-14.426 17.044-1.57 19.716-144.047 1975.43 1187.196 2430.917 2.005.701 4.14 1.052 6.232 1.052 2.006 0 4.098-.35 6.102-1.052 1331.286-455.487 1188.81-2411.201 1187.196-2430.917" stroke-width="1.344"/></g><g fill="url(#a)" fill-rule="nonzero"><path d="m1349 1h571v445h-571z" transform="translate(0 -1)"/><path d="m0 1h344v445h-344z" transform="matrix(-1 0 0 1 344 -1)"/></g></g></svg>